<svg xmlns="http://www.w3.org/2000/svg" width="388.55" height="144.33" viewBox="0 0 388.55 144.33"><defs><style>.a{fill:#592c82}.b{fill:#f4be49}</style></defs><path class="a" d="M352.77 78.81l35.78-50.52H353.8l-18.41 25.98 17.38 24.54zM335.39 115.68l18.41 25.98h34.75l-35.78-50.51-17.38 24.53zM215.59 25.05c-27 0-44.64 14.06-44.64 14.06l10.72 20.31s14.82-10.92 31.11-10.92c13.13 0 23 6.87 23 16.66v2.44h-4c-19.47 0-70.83 5-70.83 41.21 0 22.78 19.23 35.51 40.57 35.51 27.21 0 36.59-20.1 36.35-20.1h.47a68.76 68.76 0 0 0-.47 8v9.38h27.44V70.39c0-28.81-18.31-45.34-49.72-45.34zM236 89.71c0 13.85-11.26 32.5-27 32.5-12.2 0-18.06-7.15-18.06-14.74C191 91.61 215.59 87 230.84 87H236z"/><path class="b" d="M348.4 84.98l-40.15-56.69H273.5l40.15 56.69-40.15 56.68h34.75l40.15-56.68z"/><path class="a" d="M15.48 56.63H0V28.29h16.18V0h29.08v28.29h29.09v28.34H45.26v39.68c0 18.76 15.48 21.44 23.69 21.44a28.67 28.67 0 0 0 5.39-.45v24.79a53.89 53.89 0 0 1-9.15.67c-16.65 0-49.72-4.69-49.72-42.89zM90.77 28.29h28.61v18a74 74 0 0 1-.47 8h.47c5.39-16.31 19.7-28.18 38-28.18a35.7 35.7 0 0 1 5.39.45v30.18a53.91 53.91 0 0 0-7-.45c-12.66 0-27 6.92-32.6 23.9a58.35 58.35 0 0 0-2.58 18.54v42.91H90.77z"/></svg>